<svg viewBox="0 0 118 118" fill="currentColor" xmlns="http://www.w3.org/2000/svg">
<path d="M36.4204 4.50817C66.5152 -7.96186 101.022 6.32555 113.493 36.4203C125.963 66.515 111.675 101.022 81.5805 113.493C66.8195 119.609 50.9968 119.287 37.2338 113.821C37.5542 112.775 37.9435 111.807 38.477 111.26C41.7749 107.881 44.1848 104.009 47.6792 100.833C48.3997 100.183 50.0366 99.2305 51.3227 98.7201C53.0106 98.0465 54.7977 97.7417 57.769 97.6205C60.0319 97.5268 63.8009 97.0258 66.1479 96.5101C68.4968 95.9915 71.5689 95.0346 72.9731 94.3773C74.3803 93.7217 76.7629 92.3366 78.271 91.3021C79.777 90.2651 83.9937 86.9642 87.6421 83.9671C91.2868 80.9689 94.4941 78.1582 94.7719 77.724C95.0446 77.2901 95.1721 76.8759 95.0542 76.8031C94.9333 76.7315 92.4635 76.9863 89.5639 77.3744C86.665 77.7598 82.371 78.4665 80.02 78.9437C77.6714 79.418 74.3703 80.3382 72.685 80.9818C71.0003 81.6254 68.2809 82.9324 66.6411 83.8832C65.0043 84.8358 62.5306 86.5261 61.1479 87.641C59.7625 88.7541 57.3506 91.1172 55.7837 92.8929C54.2219 94.6671 52.4229 96.5165 51.7885 97.0004C51.1547 97.4835 49.7528 98.4575 48.6733 99.1605C47.593 99.8656 46.5084 100.4 46.2641 100.347C45.9146 100.272 46.8599 98.6819 50.7426 92.8031C53.4489 88.7056 56.0048 84.9388 56.4243 84.4261C56.843 83.9147 57.5148 83.1646 57.9194 82.7572C58.3212 82.3479 58.9606 81.6663 59.3422 81.2445C59.7239 80.8226 60.2561 80.2544 60.5258 79.9828C60.7931 79.709 61.5231 78.9924 62.146 78.3939C62.7663 77.7934 63.8243 77.1046 64.4946 76.8666C65.1661 76.6284 67.5829 75.9912 69.8676 75.4525C72.1501 74.9118 75.0624 74.0466 76.3403 73.5306C77.6153 73.0127 79.4933 72.1247 80.5131 71.5531C81.5335 70.981 83.6914 69.4565 85.3139 68.1605C86.9345 66.8618 90.8942 63.3969 94.1079 60.4574C97.3206 57.5175 100.049 54.9524 100.18 54.7504C100.303 54.5511 100.312 54.3223 100.199 54.2416C100.083 54.1613 98.9809 54.1192 97.7436 54.1517C96.5065 54.1815 93.787 54.3349 91.6977 54.4906C89.6087 54.6463 86.6094 55.1136 85.0356 55.5257C83.4623 55.9379 81.0029 56.7981 79.5756 57.4408C78.1487 58.0835 76.0564 59.2905 74.9321 60.1263C73.8052 60.9604 72.1633 62.362 71.2827 63.2445C70.1452 64.3787 68.3952 66.8455 65.27 71.7132C61.6912 77.2794 60.5283 78.8871 59.1176 80.1976C58.1391 81.1085 57.2301 81.7138 57.0258 81.5863C56.8306 81.4577 56.795 81.1602 56.9448 80.9252C57.0957 80.6869 57.7369 78.9634 58.3706 77.0951C59.0047 75.2252 59.7033 73.2663 59.9253 72.7416C60.147 72.2175 60.4587 71.3262 60.6176 70.7621C60.7796 70.199 61.2653 68.6938 61.7006 67.4193C62.2147 65.9077 63.279 63.842 64.7504 61.4974C65.9943 59.516 67.4796 57.2882 68.0512 56.5433C68.6231 55.7986 69.8852 54.6068 70.8598 53.8978C71.835 53.1886 73.5383 52.2782 74.644 51.8744C75.7529 51.4722 77.6387 50.6777 78.8364 50.1107C80.0374 49.5453 82.3127 48.2736 83.895 47.2865C85.4774 46.2992 87.5242 44.7927 88.4419 43.9339C89.5566 42.8983 90.847 41.2275 92.311 38.9388C93.8755 36.4925 94.7584 34.7553 95.3784 32.9203C95.8555 31.5055 96.1369 30.3267 96.0073 30.2953C95.8729 30.2714 93.4412 31.1289 90.603 32.2015C87.4258 33.4015 84.346 34.8501 82.5981 35.9701C81.0358 36.97 79.0174 38.4947 78.1137 39.3627C77.2076 40.2287 75.7718 41.8506 74.9135 42.9691C74.0598 44.087 71.3947 48.3779 68.9917 52.5043C66.5957 56.6252 64.5223 60.0124 64.3813 60.0521C64.2445 60.0773 64.1149 59.72 64.0903 59.2611C64.0632 58.799 64.2922 57.3117 64.5962 55.9535C64.9004 54.5939 65.7098 50.7532 66.394 47.4183C67.0754 44.0815 67.9013 40.0696 68.229 38.5033C68.5564 36.9375 68.9401 34.5523 69.0835 33.1996C69.2267 31.8469 69.2689 29.6062 69.1782 28.2171C69.0873 26.8282 68.6937 24.6525 68.2993 23.3802C67.9075 22.1096 66.7293 19.0095 65.6811 16.4935C64.6331 13.9779 63.4161 10.9952 62.9741 9.86559C62.5329 8.73808 62.044 7.73253 61.8862 7.63024C61.7293 7.53046 61.5356 7.5445 61.4604 7.66149C61.3814 7.78383 60.6822 11.1922 59.9057 15.2425C59.1257 19.2946 58.4232 23.5663 58.3393 24.7318C58.2556 25.8964 58.2325 27.6971 58.2846 28.7308C58.3398 29.7665 58.6735 31.7022 59.0249 33.0355C59.3765 34.3696 60.6262 38.0518 61.7993 41.2162C62.9695 44.3787 64.0534 47.9746 64.2026 49.2035C64.3484 50.4282 64.3733 51.5972 64.2534 51.8011C64.13 52.0016 63.894 53.2106 63.7221 54.4877C63.5501 55.7656 63.1509 57.9162 62.8354 59.2679C62.5199 60.6195 62.0892 62.4349 61.8803 63.2982C61.6743 64.163 61.3316 65.4456 61.1206 66.142C60.8278 67.1231 60.6621 67.3567 60.3891 67.1752C60.1938 67.0465 59.6085 65.177 59.0883 63.0179C58.5663 60.8616 57.846 57.0051 57.4858 54.4437C57.1285 51.8845 56.4903 48.5118 56.0669 46.9505C55.6036 45.2191 54.6806 43.1097 53.7153 41.5541C52.8442 40.1475 51.5458 38.4271 50.8296 37.7279C50.1135 37.0291 47.2445 35.002 44.4575 33.2201C41.669 31.4414 38.5181 29.5679 37.4594 29.058C36.4019 28.5524 35.453 28.2657 35.3491 28.4213C35.2522 28.5823 35.7773 30.0961 36.52 31.7914C37.2603 33.4861 38.6938 36.8488 39.6977 39.264C40.7018 41.6794 42.2971 44.9969 43.2368 46.6371C44.1812 48.2761 45.8954 50.6931 47.0463 52.0082C48.1976 53.3234 50.4064 55.3898 51.9555 56.6039C53.8481 58.0855 55.2241 59.4396 56.1508 60.7406C56.9122 61.8031 57.8135 63.322 58.1596 64.1156C58.5055 64.9093 58.854 66.5113 58.934 67.6713C59.0139 68.8314 58.9861 70.5411 58.8745 71.4662C58.7626 72.3914 58.3797 74.056 58.0249 75.1605C57.6698 76.2653 56.9946 78.1945 56.5249 79.4476C56.058 80.7024 55.2842 82.4759 54.81 83.3959C54.3333 84.3132 53.7948 85.5106 53.6098 86.0589C53.4249 86.6071 52.4738 88.2239 51.4975 89.6537C50.1957 91.556 49.6406 92.1671 49.4194 91.9349C49.2534 91.7601 49.3326 88.6798 49.5942 85.0873C49.8557 81.4951 50.0751 77.5648 50.0864 76.349C50.0976 75.1339 49.9251 73.0464 49.7026 71.7064C49.4828 70.3683 48.9468 68.2714 48.5073 67.0511C48.0694 65.828 47.0428 63.7498 46.2241 62.4369C45.4043 61.1193 43.815 59.072 42.6909 57.891C41.5666 56.7099 38.7033 54.2459 36.3315 52.4183C33.9583 50.5939 31.3013 48.6405 30.4253 48.0775C29.5495 47.5188 28.7036 47.0692 28.5493 47.0795C28.3925 47.0925 28.3459 47.4743 28.4409 47.93C28.5363 48.3867 28.9013 49.5915 29.2465 50.6058C29.5922 51.6216 30.6079 54.9967 31.5004 58.1029C32.3929 61.209 33.4967 64.7209 33.9585 65.9076C34.4183 67.0964 35.2799 69.0056 35.8735 70.1546C36.4673 71.304 37.7498 73.4098 38.7202 74.8314C39.6907 76.2532 41.3673 78.4521 42.4419 79.7103C43.5146 80.9714 44.9067 82.6218 45.5297 83.3783C46.1508 84.1375 46.9516 85.4351 47.3042 86.2689C47.6584 87.1002 48.0347 88.8173 48.1421 90.0795C48.2492 91.3416 48.2724 92.97 48.1938 93.6986C48.0698 94.8254 47.6034 95.6836 44.9731 99.6117C42.6767 103.035 41.8042 104.143 41.5376 103.976C41.3404 103.85 41.2554 103.025 41.3462 102.139C41.4369 101.252 41.4294 98.6611 41.3296 96.3793C41.2268 94.0957 41.0465 91.3714 40.9272 90.3226C40.8079 89.2744 40.3314 87.3041 39.8696 85.9486C39.4094 84.5902 38.2663 82.2666 37.3325 80.7875C36.3987 79.3086 34.6819 77.1728 33.5249 76.0433C32.321 74.868 30.0767 73.1222 28.2885 71.9613C26.5672 70.8471 23.8289 69.3218 22.2036 68.5795C20.582 67.8352 18.991 67.2115 18.6655 67.1937C18.1465 67.1692 18.0953 67.2499 18.2046 67.9164C18.2775 68.3323 20.4674 72.5486 23.0815 77.2884C25.6968 82.0306 28.8378 87.3107 30.0688 89.0238C31.2999 90.7369 33.4044 93.1803 34.7475 94.4525C36.0907 95.7247 37.7713 97.1361 38.477 97.5863C39.6566 98.3388 39.79 98.5855 40.0922 100.569C40.2742 101.758 40.2198 103.583 39.9692 104.625C39.5817 106.253 39.3326 106.713 38.1909 107.892C37.4614 108.645 35.9949 110.163 34.9331 111.26C34.5712 111.634 34.2215 112.022 33.9145 112.384C21.0794 106.357 10.3642 95.7118 4.50826 81.5804C-7.96205 51.4856 6.32583 16.979 36.4204 4.50817Z" fill="currentColor"/>
</svg>
